<?xml version="1.0" standalone="no"?>
<!DOCTYPE svg PUBLIC "-//W3C//DTD SVG 20010904//EN"
 "http://www.w3.org/TR/2001/REC-SVG-20010904/DTD/svg10.dtd">
<svg version="1.0" xmlns="http://www.w3.org/2000/svg"
 width="560.000000pt" height="560.000000pt" viewBox="0 0 560.000000 560.000000"
 preserveAspectRatio="xMidYMid meet">
<metadata>
Created by potrace 1.11, written by Peter Selinger 2001-2013
</metadata>
<g transform="translate(0.000000,560.000000) scale(0.100000,-0.100000)"
fill="#000000" stroke="none">
<path d="M3082 5229 c-100 -41 -212 -64 -437 -89 -283 -32 -359 -51 -496 -122
-126 -64 -255 -169 -326 -263 -148 -194 -207 -448 -202 -859 l3 -208 -59 -32
-60 -31 -3 -75 c-4 -95 5 -107 82 -120 81 -13 96 -29 96 -100 0 -295 186 -446
525 -427 166 10 272 52 365 146 73 72 100 141 108 268 5 92 5 92 35 102 39 14
107 14 163 0 l44 -11 0 -68 c0 -306 181 -457 525 -437 166 10 272 52 365 146
73 72 100 141 108 268 5 104 2 100 97 113 78 12 87 24 83 120 l-3 75 -77 39
-78 39 8 56 c4 31 7 160 7 286 -1 465 -73 655 -326 857 -50 40 -106 85 -123
100 l-31 26 18 50 c9 27 17 61 17 76 0 32 -23 34 -95 7 -100 -37 -96 -38 -89
7 4 25 2 42 -5 47 -7 4 -46 -9 -88 -29 -41 -20 -76 -36 -78 -36 -2 0 6 17 18
38 21 39 19 73 -5 71 -7 0 -46 -14 -86 -30z m308 -612 c48 -56 138 -141 199
-186 99 -74 174 -193 210 -336 18 -70 63 -366 57 -372 -1 -2 -17 2 -36 7 -18
5 -81 14 -139 20 -74 8 -127 20 -176 40 -94 38 -191 54 -290 47 -103 -7 -135
-19 -135 -50 0 -13 5 -28 12 -35 9 -9 8 -12 -3 -16 -41 -12 -141 -46 -191 -65
-65 -24 -127 -26 -178 -7 -19 8 -77 30 -129 49 -52 19 -89 37 -82 41 6 4 11
18 11 32 0 32 -31 44 -135 51 -99 7 -196 -9 -290 -47 -49 -20 -102 -32 -176
-40 -58 -6 -121 -15 -140 -20 -58 -17 -60 -15 -54 43 11 93 65 299 102 392 46
116 91 185 167 260 33 34 91 95 128 136 l67 76 283 -5 c275 -4 722 11 803 27
57 12 75 5 115 -42z m-954 -1040 c120 -39 159 -95 159 -227 0 -68 -5 -94 -23
-132 -70 -143 -273 -218 -513 -189 -146 17 -227 65 -268 160 -41 95 -36 248
10 312 25 36 79 64 157 84 82 20 407 15 478 -8z m1240 0 c120 -39 159 -95 159
-227 0 -68 -5 -94 -23 -132 -70 -143 -273 -218 -513 -189 -146 17 -227 65
-268 160 -41 95 -36 248 10 312 25 36 79 64 157 84 82 20 407 15 478 -8z"/>
<path d="M2218 3464 c-77 -41 -75 -169 2 -209 84 -43 180 13 180 105 0 92 -99
149 -182 104z"/>
<path d="M3258 3464 c-77 -41 -75 -169 2 -209 60 -31 137 -10 165 45 57 110
-58 223 -167 164z"/>
<path d="M2565 2978 c13 -44 41 -73 100 -103 50 -25 71 -30 135 -30 115 0 212
55 235 133 l6 22 -241 0 -241 0 6 -22z"/>
<path d="M2532 2628 c-33 -33 1 -115 65 -157 59 -40 132 -55 234 -49 133 7
230 64 245 145 14 75 -40 98 -80 35 -35 -56 -67 -78 -136 -91 -46 -9 -74 -9
-120 0 -69 13 -101 35 -136 90 -25 39 -50 49 -72 27z"/>
<path d="M2270 1935 c-8 -2 -49 -9 -90 -15 -291 -47 -472 -178 -496 -359 l-7
-51 -71 -34 c-141 -68 -255 -152 -386 -285 -125 -125 -250 -293 -250 -334 0
-11 57 -76 133 -151 200 -201 427 -361 672 -477 101 -48 256 -109 276 -109 5
0 9 181 9 456 0 251 3 454 8 452 4 -1 35 -16 70 -33 l62 -29 0 -447 0 -447
138 -26 c335 -64 610 -63 945 5 461 92 874 315 1215 655 75 75 132 140 132
151 0 40 -126 209 -250 334 -131 133 -245 217 -386 285 l-71 34 -7 51 c-27
200 -224 326 -588 374 l-46 6 -4 -233 c-5 -271 -17 -323 -93 -427 -192 -260
-578 -261 -769 -1 -79 107 -88 150 -94 423 -4 254 -2 242 -52 232z m1270
-1315 l0 -411 -25 -24 c-13 -14 -33 -25 -45 -25 -12 0 -32 11 -45 25 l-25 24
0 378 1 378 62 32 c34 17 65 32 70 32 4 1 7 -184 7 -409z"/>
</g>
</svg>
